<svg xmlns="http://www.w3.org/2000/svg" viewBox="0 0 24 24" fill="currentColor">
  <path d="M12 2C7.58 2 4 5.58 4 10c0 2.32 1 4.4 2.59 5.86.25.23.41.55.41.89V18c0 1.1.9 2 2 2h.5v-2H10v-2H8.5l-.21-1.43A1 1 0 0 0 8 13.85C6.78 12.79 6 11.49 6 10c0-3.31 2.69-6 6-6s6 2.69 6 6c0 1.49-.78 2.79-2 3.85a1 1 0 0 0-.29.72L15.5 16H14v2h1v2h.5c1.1 0 2-.9 2-2v-1.25c0-.34.16-.66.41-.89A7.97 7.97 0 0 0 20 10c0-4.42-3.58-8-8-8zm-2.5 7a1.5 1.5 0 1 1 0 3 1.5 1.5 0 0 1 0-3zm5 0a1.5 1.5 0 1 1 0 3 1.5 1.5 0 0 1 0-3zM11 17h2v3h-2v-3z"/>
</svg>
